# xmcd CD database file
#
# Track frame offsets:
#	183
#	23433
#	36258
#	59358
#	112420
#	134758
#	153708
#	172045
#	188983
#	211458
#	227633
#	242283
#	259493
#
# Disc length: 3776 seconds
#
# Revision: 0
# Processed by: cddbd v1.4PL0 Copyright (c) Steve Scherf et al.
# Submitted via: CDex 1.50Beta7
#
DISCID=c10ebe0d
DTITLE=Lee Konitz - Breaths and Whispers with Umberto Petrin
DYEAR=1900
DGENRE=Jazz
TTITLE0=Breaths
TTITLE1=Prose
TTITLE2=Le Sptieme Reve
TTITLE3=De-Collage Pou AS
TTITLE4=Vie As Life
TTITLE5=Listening At The Corners
TTITLE6=Poesia Non M'Abbandonare Mai
TTITLE7=Block-Cordes
TTITLE8=Whispers
TTITLE9=Unquiet Lands
TTITLE10=Soleil
TTITLE11=Out Of The Song
TTITLE12=Breaths alt tak
EXTD=
EXTT0=
EXTT1=
EXTT2=
EXTT3=
EXTT4=
EXTT5=
EXTT6=
EXTT7=
EXTT8=
EXTT9=
EXTT10=
EXTT11=
EXTT12=
PLAYORDER=
